<mxfile host="65bd71144e">
    <diagram id="7MT1vgg-qocSITAkgGEQ" name="Page-1">
        <mxGraphModel dx="993" dy="767" grid="1" gridSize="10" guides="1" tooltips="1" connect="1" arrows="1" fold="1" page="1" pageScale="1" pageWidth="850" pageHeight="1100" math="0" shadow="0">
            <root>
                <mxCell id="0"/>
                <mxCell id="1" parent="0"/>
                <mxCell id="5" value="Nhân Viên&lt;br&gt;" style="strokeWidth=1;shadow=0;dashed=0;align=center;html=1;shape=mxgraph.mockup.navigation.anchor;fontSize=17;fontColor=#666666;fontStyle=1;" parent="1" vertex="1">
                    <mxGeometry x="50" y="160" width="100" height="30" as="geometry"/>
                </mxCell>
                <mxCell id="6" value="&gt;" style="strokeWidth=1;shadow=0;dashed=0;align=center;html=1;shape=mxgraph.mockup.navigation.anchor;fontSize=24;fontColor=#aaaaaa;fontStyle=1;" parent="1" vertex="1">
                    <mxGeometry x="150" y="160" width="20" height="30" as="geometry"/>
                </mxCell>
                <mxCell id="13" value="&lt;font color=&quot;#ffffff&quot;&gt;&lt;font style=&quot;font-size: 25px&quot;&gt;Thông tin nhân viên&lt;/font&gt;&lt;/font&gt;" style="rounded=1;whiteSpace=wrap;html=1;fontSize=33;fontColor=#000000;" parent="1" vertex="1">
                    <mxGeometry x="50" y="240" width="180" height="180" as="geometry"/>
                </mxCell>
                <mxCell id="14" value="&lt;font style=&quot;color: rgb(255 , 255 , 255) ; font-size: 25px&quot;&gt;Thông tin nhân viên&lt;/font&gt;" style="rounded=1;whiteSpace=wrap;html=1;fontSize=33;fontColor=#000000;" parent="1" vertex="1">
                    <mxGeometry x="620" y="240" width="180" height="180" as="geometry"/>
                </mxCell>
                <mxCell id="15" value="&lt;font style=&quot;color: rgb(255 , 255 , 255) ; font-size: 25px&quot;&gt;Thông tin nhân viên&lt;/font&gt;" style="rounded=1;whiteSpace=wrap;html=1;fontSize=33;fontColor=#000000;" parent="1" vertex="1">
                    <mxGeometry x="350" y="240" width="180" height="180" as="geometry"/>
                </mxCell>
                <mxCell id="16" value="&lt;font style=&quot;color: rgb(255 , 255 , 255) ; font-family: &amp;#34;helvetica&amp;#34; ; font-style: normal ; font-weight: 400 ; letter-spacing: normal ; text-align: center ; text-indent: 0px ; text-transform: none ; word-spacing: 0px ; background-color: rgb(42 , 42 , 42) ; font-size: 25px&quot;&gt;Thông tin nhân viên&lt;/font&gt;" style="rounded=1;whiteSpace=wrap;html=1;fontSize=33;fontColor=#000000;" parent="1" vertex="1">
                    <mxGeometry x="50" y="450" width="180" height="180" as="geometry"/>
                </mxCell>
                <mxCell id="17" value="&lt;font style=&quot;color: rgb(255 , 255 , 255) ; font-family: &amp;#34;helvetica&amp;#34; ; font-style: normal ; font-weight: 400 ; letter-spacing: normal ; text-align: center ; text-indent: 0px ; text-transform: none ; word-spacing: 0px ; background-color: rgb(42 , 42 , 42) ; font-size: 25px&quot;&gt;Thông tin nhân viên&lt;/font&gt;" style="rounded=1;whiteSpace=wrap;html=1;fontSize=33;fontColor=#000000;" parent="1" vertex="1">
                    <mxGeometry x="350" y="450" width="180" height="180" as="geometry"/>
                </mxCell>
                <mxCell id="18" value="&lt;font style=&quot;color: rgb(255 , 255 , 255) ; font-family: &amp;#34;helvetica&amp;#34; ; font-style: normal ; font-weight: 400 ; letter-spacing: normal ; text-align: center ; text-indent: 0px ; text-transform: none ; word-spacing: 0px ; background-color: rgb(42 , 42 , 42) ; font-size: 25px&quot;&gt;Thông tin nhân viên&lt;/font&gt;" style="rounded=1;whiteSpace=wrap;html=1;fontSize=33;fontColor=#000000;" parent="1" vertex="1">
                    <mxGeometry x="620" y="450" width="180" height="180" as="geometry"/>
                </mxCell>
                <mxCell id="19" value="&lt;font style=&quot;color: rgb(255 , 255 , 255) ; font-family: &amp;#34;helvetica&amp;#34; ; font-style: normal ; font-weight: 400 ; letter-spacing: normal ; text-align: center ; text-indent: 0px ; text-transform: none ; word-spacing: 0px ; background-color: rgb(42 , 42 , 42) ; font-size: 25px&quot;&gt;Thông tin nhân viên&lt;/font&gt;" style="rounded=1;whiteSpace=wrap;html=1;fontSize=33;fontColor=#000000;" parent="1" vertex="1">
                    <mxGeometry x="50" y="660" width="180" height="180" as="geometry"/>
                </mxCell>
                <mxCell id="20" value="&lt;font style=&quot;color: rgb(255 , 255 , 255) ; font-family: &amp;#34;helvetica&amp;#34; ; font-style: normal ; font-weight: 400 ; letter-spacing: normal ; text-align: center ; text-indent: 0px ; text-transform: none ; word-spacing: 0px ; background-color: rgb(42 , 42 , 42) ; font-size: 25px&quot;&gt;Thông tin nhân viên&lt;/font&gt;" style="rounded=1;whiteSpace=wrap;html=1;fontSize=33;fontColor=#000000;" parent="1" vertex="1">
                    <mxGeometry x="350" y="660" width="180" height="180" as="geometry"/>
                </mxCell>
                <mxCell id="21" value="&lt;font style=&quot;color: rgb(255 , 255 , 255) ; font-family: &amp;#34;helvetica&amp;#34; ; font-style: normal ; font-weight: 400 ; letter-spacing: normal ; text-align: center ; text-indent: 0px ; text-transform: none ; word-spacing: 0px ; background-color: rgb(42 , 42 , 42) ; font-size: 25px&quot;&gt;Thông tin nhân viên&lt;/font&gt;" style="rounded=1;whiteSpace=wrap;html=1;fontSize=33;fontColor=#000000;" parent="1" vertex="1">
                    <mxGeometry x="620" y="660" width="180" height="180" as="geometry"/>
                </mxCell>
                <mxCell id="42" value="" style="rounded=0;whiteSpace=wrap;html=1;fillColor=#78B0E2;fontColor=#ffffff;strokeColor=#006EAF;" vertex="1" parent="1">
                    <mxGeometry width="850" height="130" as="geometry"/>
                </mxCell>
                <mxCell id="3" value="&lt;font style=&quot;font-size: 33px&quot;&gt;Logo&lt;/font&gt;" style="rounded=1;whiteSpace=wrap;html=1;shadow=0;" parent="1" vertex="1">
                    <mxGeometry x="60" y="40" width="90" height="50" as="geometry"/>
                </mxCell>
                <mxCell id="22" value="" style="strokeWidth=1;shadow=0;dashed=0;align=center;html=1;shape=mxgraph.mockup.forms.rrect;rSize=0;strokeColor=#999999;fontSize=33;fontColor=#000000;" parent="1" vertex="1">
                    <mxGeometry x="210" y="50" width="380" height="30" as="geometry"/>
                </mxCell>
                <mxCell id="23" value="&lt;font color=&quot;#0000ff&quot;&gt;Nhân Viên&lt;/font&gt;" style="strokeColor=#666666;fillColor=#f5f5f5;gradientColor=#b3b3b3;strokeWidth=1;shadow=0;dashed=0;align=center;html=1;shape=mxgraph.mockup.forms.rrect;rSize=0;fontSize=17;labelBackgroundColor=none;labelBorderColor=none;" parent="22" vertex="1">
                    <mxGeometry width="126.66666666666669" height="30" as="geometry"/>
                </mxCell>
                <mxCell id="24" value="Phòng ban" style="strokeColor=inherit;fillColor=inherit;gradientColor=inherit;strokeWidth=1;shadow=0;dashed=0;align=center;html=1;shape=mxgraph.mockup.forms.rrect;rSize=0;fontSize=17;fontColor=#666666;" parent="22" vertex="1">
                    <mxGeometry x="118.98222222222225" width="133.70370370370372" height="30" as="geometry"/>
                </mxCell>
                <mxCell id="25" value="Lương" style="strokeColor=inherit;fillColor=inherit;gradientColor=inherit;strokeWidth=1;shadow=0;dashed=0;align=center;html=1;shape=mxgraph.mockup.forms.rrect;rSize=0;fontSize=17;fontColor=#666666;" parent="22" vertex="1">
                    <mxGeometry x="252.68592592592591" width="127.31407407407407" height="30" as="geometry"/>
                </mxCell>
                <mxCell id="43" value="" style="rounded=0;whiteSpace=wrap;html=1;shadow=0;fillColor=#78B0E2;gradientColor=none;" vertex="1" parent="1">
                    <mxGeometry y="960" width="850" height="140" as="geometry"/>
                </mxCell>
                <mxCell id="44" value="&lt;div style=&quot;font-size: 23px&quot;&gt;&lt;b&gt;&lt;font color=&quot;#0000ff&quot;&gt;Nhân Viên&lt;/font&gt;&lt;/b&gt;&lt;/div&gt;&lt;div style=&quot;font-size: 23px&quot;&gt;Phòng Ban&amp;nbsp;&lt;/div&gt;&lt;div style=&quot;font-size: 23px&quot;&gt;Lương&lt;/div&gt;" style="text;strokeColor=none;fillColor=none;html=1;whiteSpace=wrap;verticalAlign=middle;overflow=hidden;shadow=0;fontSize=23;align=left;" vertex="1" parent="1">
                    <mxGeometry x="90" y="970" width="130" height="120" as="geometry"/>
                </mxCell>
                <mxCell id="46" value="Address" style="rounded=1;whiteSpace=wrap;html=1;shadow=0;fontSize=23;fillColor=#78B0E2;gradientColor=none;" vertex="1" parent="1">
                    <mxGeometry x="270" y="970" width="200" height="110" as="geometry"/>
                </mxCell>
                <mxCell id="47" value="" style="whiteSpace=wrap;html=1;aspect=fixed;shadow=0;fontSize=23;fillColor=#78B0E2;gradientColor=none;" vertex="1" parent="1">
                    <mxGeometry x="550" y="1000" width="60" height="60" as="geometry"/>
                </mxCell>
                <mxCell id="50" value="" style="whiteSpace=wrap;html=1;aspect=fixed;shadow=0;fontSize=23;fillColor=#78B0E2;gradientColor=none;" vertex="1" parent="1">
                    <mxGeometry x="610" y="1000" width="60" height="60" as="geometry"/>
                </mxCell>
                <mxCell id="51" value="" style="whiteSpace=wrap;html=1;aspect=fixed;shadow=0;fontSize=23;fillColor=#78B0E2;gradientColor=none;" vertex="1" parent="1">
                    <mxGeometry x="670" y="1000" width="60" height="60" as="geometry"/>
                </mxCell>
                <mxCell id="52" value="" style="whiteSpace=wrap;html=1;aspect=fixed;shadow=0;fontSize=23;fillColor=#78B0E2;gradientColor=none;" vertex="1" parent="1">
                    <mxGeometry x="730" y="1000" width="60" height="60" as="geometry"/>
                </mxCell>
            </root>
        </mxGraphModel>
    </diagram>
    <diagram id="rMTqk6ZcJcHKCeHD4YHo" name="Page-2">
        <mxGraphModel dx="993" dy="767" grid="1" gridSize="10" guides="1" tooltips="1" connect="1" arrows="1" fold="1" page="1" pageScale="1" pageWidth="850" pageHeight="1100" math="0" shadow="0">
            <root>
                <mxCell id="PWwsp_TH4XRDGh7AQ3Vi-0"/>
                <mxCell id="PWwsp_TH4XRDGh7AQ3Vi-1" parent="PWwsp_TH4XRDGh7AQ3Vi-0"/>
                <mxCell id="tb035mJrITz5nyeQQao1-0" value="Nhân Viên&lt;br&gt;" style="strokeWidth=1;shadow=0;dashed=0;align=center;html=1;shape=mxgraph.mockup.navigation.anchor;fontSize=17;fontColor=#666666;fontStyle=1;" vertex="1" parent="PWwsp_TH4XRDGh7AQ3Vi-1">
                    <mxGeometry x="50" y="160" width="100" height="30" as="geometry"/>
                </mxCell>
                <mxCell id="tb035mJrITz5nyeQQao1-1" value="&gt;" style="strokeWidth=1;shadow=0;dashed=0;align=center;html=1;shape=mxgraph.mockup.navigation.anchor;fontSize=24;fontColor=#aaaaaa;fontStyle=1;" vertex="1" parent="PWwsp_TH4XRDGh7AQ3Vi-1">
                    <mxGeometry x="150" y="160" width="20" height="30" as="geometry"/>
                </mxCell>
                <mxCell id="tb035mJrITz5nyeQQao1-9" value="&lt;font color=&quot;#ffffff&quot; face=&quot;helvetica&quot;&gt;&lt;span style=&quot;font-size: 25px&quot;&gt;image&lt;/span&gt;&lt;/font&gt;" style="rounded=1;whiteSpace=wrap;html=1;fontSize=33;fontColor=#000000;" vertex="1" parent="PWwsp_TH4XRDGh7AQ3Vi-1">
                    <mxGeometry x="50" y="280" width="290" height="510" as="geometry"/>
                </mxCell>
                <mxCell id="tb035mJrITz5nyeQQao1-11" value="" style="rounded=0;whiteSpace=wrap;html=1;fillColor=#78B0E2;fontColor=#ffffff;strokeColor=#006EAF;" vertex="1" parent="PWwsp_TH4XRDGh7AQ3Vi-1">
                    <mxGeometry width="850" height="130" as="geometry"/>
                </mxCell>
                <mxCell id="tb035mJrITz5nyeQQao1-12" value="&lt;font style=&quot;font-size: 33px&quot;&gt;Logo&lt;/font&gt;" style="rounded=1;whiteSpace=wrap;html=1;shadow=0;" vertex="1" parent="PWwsp_TH4XRDGh7AQ3Vi-1">
                    <mxGeometry x="60" y="40" width="90" height="50" as="geometry"/>
                </mxCell>
                <mxCell id="tb035mJrITz5nyeQQao1-13" value="" style="strokeWidth=1;shadow=0;dashed=0;align=center;html=1;shape=mxgraph.mockup.forms.rrect;rSize=0;strokeColor=#999999;fontSize=33;fontColor=#000000;" vertex="1" parent="PWwsp_TH4XRDGh7AQ3Vi-1">
                    <mxGeometry x="210" y="50" width="380" height="30" as="geometry"/>
                </mxCell>
                <mxCell id="tb035mJrITz5nyeQQao1-14" value="&lt;font color=&quot;#0000ff&quot;&gt;Nhân Viên&lt;/font&gt;" style="strokeColor=#666666;fillColor=#f5f5f5;gradientColor=#b3b3b3;strokeWidth=1;shadow=0;dashed=0;align=center;html=1;shape=mxgraph.mockup.forms.rrect;rSize=0;fontSize=17;labelBackgroundColor=none;labelBorderColor=none;" vertex="1" parent="tb035mJrITz5nyeQQao1-13">
                    <mxGeometry width="126.66666666666669" height="30" as="geometry"/>
                </mxCell>
                <mxCell id="tb035mJrITz5nyeQQao1-15" value="Phòng ban" style="strokeColor=inherit;fillColor=inherit;gradientColor=inherit;strokeWidth=1;shadow=0;dashed=0;align=center;html=1;shape=mxgraph.mockup.forms.rrect;rSize=0;fontSize=17;fontColor=#666666;" vertex="1" parent="tb035mJrITz5nyeQQao1-13">
                    <mxGeometry x="118.98222222222225" width="133.70370370370372" height="30" as="geometry"/>
                </mxCell>
                <mxCell id="tb035mJrITz5nyeQQao1-16" value="Lương" style="strokeColor=inherit;fillColor=inherit;gradientColor=inherit;strokeWidth=1;shadow=0;dashed=0;align=center;html=1;shape=mxgraph.mockup.forms.rrect;rSize=0;fontSize=17;fontColor=#666666;" vertex="1" parent="tb035mJrITz5nyeQQao1-13">
                    <mxGeometry x="252.68592592592591" width="127.31407407407407" height="30" as="geometry"/>
                </mxCell>
                <mxCell id="tb035mJrITz5nyeQQao1-17" value="" style="rounded=0;whiteSpace=wrap;html=1;shadow=0;fillColor=#78B0E2;gradientColor=none;" vertex="1" parent="PWwsp_TH4XRDGh7AQ3Vi-1">
                    <mxGeometry y="960" width="850" height="140" as="geometry"/>
                </mxCell>
                <mxCell id="tb035mJrITz5nyeQQao1-18" value="&lt;div style=&quot;font-size: 23px&quot;&gt;&lt;b&gt;&lt;font color=&quot;#0000ff&quot;&gt;Nhân Viên&lt;/font&gt;&lt;/b&gt;&lt;/div&gt;&lt;div style=&quot;font-size: 23px&quot;&gt;Phòng Ban&amp;nbsp;&lt;/div&gt;&lt;div style=&quot;font-size: 23px&quot;&gt;Lương&lt;/div&gt;" style="text;strokeColor=none;fillColor=none;html=1;whiteSpace=wrap;verticalAlign=middle;overflow=hidden;shadow=0;fontSize=23;align=left;" vertex="1" parent="PWwsp_TH4XRDGh7AQ3Vi-1">
                    <mxGeometry x="90" y="970" width="130" height="120" as="geometry"/>
                </mxCell>
                <mxCell id="tb035mJrITz5nyeQQao1-19" value="Address" style="rounded=1;whiteSpace=wrap;html=1;shadow=0;fontSize=23;fillColor=#78B0E2;gradientColor=none;" vertex="1" parent="PWwsp_TH4XRDGh7AQ3Vi-1">
                    <mxGeometry x="270" y="970" width="200" height="110" as="geometry"/>
                </mxCell>
                <mxCell id="tb035mJrITz5nyeQQao1-20" value="" style="whiteSpace=wrap;html=1;aspect=fixed;shadow=0;fontSize=23;fillColor=#78B0E2;gradientColor=none;" vertex="1" parent="PWwsp_TH4XRDGh7AQ3Vi-1">
                    <mxGeometry x="550" y="1000" width="60" height="60" as="geometry"/>
                </mxCell>
                <mxCell id="tb035mJrITz5nyeQQao1-21" value="" style="whiteSpace=wrap;html=1;aspect=fixed;shadow=0;fontSize=23;fillColor=#78B0E2;gradientColor=none;" vertex="1" parent="PWwsp_TH4XRDGh7AQ3Vi-1">
                    <mxGeometry x="610" y="1000" width="60" height="60" as="geometry"/>
                </mxCell>
                <mxCell id="tb035mJrITz5nyeQQao1-22" value="" style="whiteSpace=wrap;html=1;aspect=fixed;shadow=0;fontSize=23;fillColor=#78B0E2;gradientColor=none;" vertex="1" parent="PWwsp_TH4XRDGh7AQ3Vi-1">
                    <mxGeometry x="670" y="1000" width="60" height="60" as="geometry"/>
                </mxCell>
                <mxCell id="tb035mJrITz5nyeQQao1-23" value="" style="whiteSpace=wrap;html=1;aspect=fixed;shadow=0;fontSize=23;fillColor=#78B0E2;gradientColor=none;" vertex="1" parent="PWwsp_TH4XRDGh7AQ3Vi-1">
                    <mxGeometry x="730" y="1000" width="60" height="60" as="geometry"/>
                </mxCell>
                <mxCell id="tb035mJrITz5nyeQQao1-24" value="Nguyễn Văn A" style="strokeWidth=1;shadow=0;dashed=0;align=center;html=1;shape=mxgraph.mockup.navigation.anchor;fontSize=17;fontColor=#666666;fontStyle=1;" vertex="1" parent="PWwsp_TH4XRDGh7AQ3Vi-1">
                    <mxGeometry x="180" y="160" width="130" height="30" as="geometry"/>
                </mxCell>
                <mxCell id="tb035mJrITz5nyeQQao1-30" value="&lt;font color=&quot;#ffffff&quot; style=&quot;font-size: 30px;&quot;&gt;Họ Và Tên:&amp;nbsp;&lt;/font&gt;" style="text;html=1;strokeColor=none;fillColor=none;align=left;verticalAlign=middle;whiteSpace=wrap;rounded=0;shadow=0;labelBackgroundColor=none;labelBorderColor=none;fontSize=30;fontColor=#0000FF;fontStyle=1" vertex="1" parent="PWwsp_TH4XRDGh7AQ3Vi-1">
                    <mxGeometry x="440" y="320" width="190" height="30" as="geometry"/>
                </mxCell>
                <mxCell id="tb035mJrITz5nyeQQao1-31" value="&lt;font color=&quot;#ffffff&quot;&gt;Ngày sinh:&lt;/font&gt;" style="text;html=1;strokeColor=none;fillColor=none;align=left;verticalAlign=middle;whiteSpace=wrap;rounded=0;shadow=0;labelBackgroundColor=none;labelBorderColor=none;fontSize=25;fontColor=#0000FF;" vertex="1" parent="PWwsp_TH4XRDGh7AQ3Vi-1">
                    <mxGeometry x="440" y="400" width="150" height="30" as="geometry"/>
                </mxCell>
                <mxCell id="tb035mJrITz5nyeQQao1-32" value="Ngày vào công ty:" style="text;html=1;strokeColor=none;fillColor=none;align=left;verticalAlign=middle;whiteSpace=wrap;rounded=0;shadow=0;labelBackgroundColor=none;labelBorderColor=none;fontSize=25;fontColor=#FFFFFF;" vertex="1" parent="PWwsp_TH4XRDGh7AQ3Vi-1">
                    <mxGeometry x="440" y="470" width="220" height="30" as="geometry"/>
                </mxCell>
                <mxCell id="tb035mJrITz5nyeQQao1-33" value="&lt;font color=&quot;#ffffff&quot;&gt;Số ngày đã làm thêm:&lt;/font&gt;" style="text;html=1;strokeColor=none;fillColor=none;align=left;verticalAlign=middle;whiteSpace=wrap;rounded=0;shadow=0;labelBackgroundColor=none;labelBorderColor=none;fontSize=25;fontColor=#0000FF;" vertex="1" parent="PWwsp_TH4XRDGh7AQ3Vi-1">
                    <mxGeometry x="440" y="690" width="265" height="30" as="geometry"/>
                </mxCell>
                <mxCell id="tb035mJrITz5nyeQQao1-34" value="Phòng ban:" style="text;html=1;strokeColor=none;fillColor=none;align=center;verticalAlign=middle;whiteSpace=wrap;rounded=0;shadow=0;labelBackgroundColor=none;labelBorderColor=none;fontSize=25;fontColor=#FFFFFF;" vertex="1" parent="PWwsp_TH4XRDGh7AQ3Vi-1">
                    <mxGeometry x="400" y="535" width="200" height="30" as="geometry"/>
                </mxCell>
                <mxCell id="tb035mJrITz5nyeQQao1-35" value="Số ngày nghỉ còn lại:" style="text;html=1;strokeColor=none;fillColor=none;align=left;verticalAlign=middle;whiteSpace=wrap;rounded=0;shadow=0;labelBackgroundColor=default;labelBorderColor=none;fontSize=25;fontColor=#FFFFFF;" vertex="1" parent="PWwsp_TH4XRDGh7AQ3Vi-1">
                    <mxGeometry x="440" y="610" width="240" height="30" as="geometry"/>
                </mxCell>
            </root>
        </mxGraphModel>
    </diagram>
    <diagram id="sesb8k3MzSJp_zZAqKtg" name="Page-3">
        <mxGraphModel dx="993" dy="767" grid="1" gridSize="10" guides="1" tooltips="1" connect="1" arrows="1" fold="1" page="1" pageScale="1" pageWidth="850" pageHeight="1100" math="0" shadow="0">
            <root>
                <mxCell id="HXyZIpKs_MCkrubLxwcP-0"/>
                <mxCell id="HXyZIpKs_MCkrubLxwcP-1" parent="HXyZIpKs_MCkrubLxwcP-0"/>
                <mxCell id="0wiFBWgtt90F7_6RLSUe-0" value="Phòng ban" style="strokeWidth=1;shadow=0;dashed=0;align=center;html=1;shape=mxgraph.mockup.navigation.anchor;fontSize=17;fontColor=#666666;fontStyle=1;" vertex="1" parent="HXyZIpKs_MCkrubLxwcP-1">
                    <mxGeometry x="50" y="160" width="100" height="30" as="geometry"/>
                </mxCell>
                <mxCell id="0wiFBWgtt90F7_6RLSUe-1" value="&gt;" style="strokeWidth=1;shadow=0;dashed=0;align=center;html=1;shape=mxgraph.mockup.navigation.anchor;fontSize=24;fontColor=#aaaaaa;fontStyle=1;" vertex="1" parent="HXyZIpKs_MCkrubLxwcP-1">
                    <mxGeometry x="150" y="160" width="20" height="30" as="geometry"/>
                </mxCell>
                <mxCell id="0wiFBWgtt90F7_6RLSUe-2" value="&lt;font color=&quot;#ffffff&quot; style=&quot;font-size: 20px&quot;&gt;&lt;span&gt;Dept:&lt;br&gt;&lt;div&gt;&lt;span&gt;Số lượng nhân viên&lt;/span&gt;&lt;/div&gt;&lt;/span&gt;&lt;/font&gt;" style="rounded=1;whiteSpace=wrap;html=1;fontSize=33;fontColor=#000000;align=left;" vertex="1" parent="HXyZIpKs_MCkrubLxwcP-1">
                    <mxGeometry x="50" y="250" width="180" height="180" as="geometry"/>
                </mxCell>
                <mxCell id="0wiFBWgtt90F7_6RLSUe-11" value="" style="rounded=0;whiteSpace=wrap;html=1;fillColor=#78B0E2;fontColor=#ffffff;strokeColor=#006EAF;" vertex="1" parent="HXyZIpKs_MCkrubLxwcP-1">
                    <mxGeometry width="850" height="130" as="geometry"/>
                </mxCell>
                <mxCell id="0wiFBWgtt90F7_6RLSUe-12" value="&lt;font style=&quot;font-size: 33px&quot;&gt;Logo&lt;/font&gt;" style="rounded=1;whiteSpace=wrap;html=1;shadow=0;" vertex="1" parent="HXyZIpKs_MCkrubLxwcP-1">
                    <mxGeometry x="60" y="40" width="90" height="50" as="geometry"/>
                </mxCell>
                <mxCell id="0wiFBWgtt90F7_6RLSUe-13" value="" style="strokeWidth=1;shadow=0;dashed=0;align=center;html=1;shape=mxgraph.mockup.forms.rrect;rSize=0;strokeColor=#999999;fontSize=33;fontColor=#000000;" vertex="1" parent="HXyZIpKs_MCkrubLxwcP-1">
                    <mxGeometry x="210" y="50" width="380" height="30" as="geometry"/>
                </mxCell>
                <mxCell id="0wiFBWgtt90F7_6RLSUe-14" value="&lt;font color=&quot;#666666&quot;&gt;Nhân Viên&lt;/font&gt;" style="strokeWidth=1;shadow=0;dashed=0;align=center;html=1;shape=mxgraph.mockup.forms.rrect;rSize=0;fontSize=17;labelBackgroundColor=none;labelBorderColor=none;" vertex="1" parent="0wiFBWgtt90F7_6RLSUe-13">
                    <mxGeometry width="126.66666666666669" height="30" as="geometry"/>
                </mxCell>
                <mxCell id="0wiFBWgtt90F7_6RLSUe-15" value="&lt;font color=&quot;#0000ff&quot;&gt;Phòng ban&lt;/font&gt;" style="strokeColor=#666666;fillColor=#f5f5f5;gradientColor=#b3b3b3;strokeWidth=1;shadow=0;dashed=0;align=center;html=1;shape=mxgraph.mockup.forms.rrect;rSize=0;fontSize=17;" vertex="1" parent="0wiFBWgtt90F7_6RLSUe-13">
                    <mxGeometry x="118.98222222222225" width="133.70370370370372" height="30" as="geometry"/>
                </mxCell>
                <mxCell id="0wiFBWgtt90F7_6RLSUe-16" value="Lương" style="strokeColor=inherit;fillColor=inherit;gradientColor=inherit;strokeWidth=1;shadow=0;dashed=0;align=center;html=1;shape=mxgraph.mockup.forms.rrect;rSize=0;fontSize=17;fontColor=#666666;" vertex="1" parent="0wiFBWgtt90F7_6RLSUe-13">
                    <mxGeometry x="252.68592592592591" width="127.31407407407407" height="30" as="geometry"/>
                </mxCell>
                <mxCell id="0wiFBWgtt90F7_6RLSUe-17" value="" style="rounded=0;whiteSpace=wrap;html=1;shadow=0;fillColor=#78B0E2;gradientColor=none;" vertex="1" parent="HXyZIpKs_MCkrubLxwcP-1">
                    <mxGeometry y="960" width="850" height="140" as="geometry"/>
                </mxCell>
                <mxCell id="0wiFBWgtt90F7_6RLSUe-18" value="&lt;div style=&quot;font-size: 23px&quot;&gt;&lt;font color=&quot;#ffffff&quot;&gt;Nhân Viên&lt;/font&gt;&lt;/div&gt;&lt;div style=&quot;font-size: 23px&quot;&gt;&lt;b&gt;&lt;font color=&quot;#0000ff&quot;&gt;Phòng Ban&lt;/font&gt;&lt;/b&gt;&amp;nbsp;&lt;/div&gt;&lt;div style=&quot;font-size: 23px&quot;&gt;Lương&lt;/div&gt;" style="text;strokeColor=none;fillColor=none;html=1;whiteSpace=wrap;verticalAlign=middle;overflow=hidden;shadow=0;fontSize=23;align=left;" vertex="1" parent="HXyZIpKs_MCkrubLxwcP-1">
                    <mxGeometry x="90" y="970" width="140" height="120" as="geometry"/>
                </mxCell>
                <mxCell id="0wiFBWgtt90F7_6RLSUe-19" value="Address" style="rounded=1;whiteSpace=wrap;html=1;shadow=0;fontSize=23;fillColor=#78B0E2;gradientColor=none;" vertex="1" parent="HXyZIpKs_MCkrubLxwcP-1">
                    <mxGeometry x="270" y="970" width="200" height="110" as="geometry"/>
                </mxCell>
                <mxCell id="0wiFBWgtt90F7_6RLSUe-20" value="" style="whiteSpace=wrap;html=1;aspect=fixed;shadow=0;fontSize=23;fillColor=#78B0E2;gradientColor=none;" vertex="1" parent="HXyZIpKs_MCkrubLxwcP-1">
                    <mxGeometry x="550" y="1000" width="60" height="60" as="geometry"/>
                </mxCell>
                <mxCell id="0wiFBWgtt90F7_6RLSUe-21" value="" style="whiteSpace=wrap;html=1;aspect=fixed;shadow=0;fontSize=23;fillColor=#78B0E2;gradientColor=none;" vertex="1" parent="HXyZIpKs_MCkrubLxwcP-1">
                    <mxGeometry x="610" y="1000" width="60" height="60" as="geometry"/>
                </mxCell>
                <mxCell id="0wiFBWgtt90F7_6RLSUe-22" value="" style="whiteSpace=wrap;html=1;aspect=fixed;shadow=0;fontSize=23;fillColor=#78B0E2;gradientColor=none;" vertex="1" parent="HXyZIpKs_MCkrubLxwcP-1">
                    <mxGeometry x="670" y="1000" width="60" height="60" as="geometry"/>
                </mxCell>
                <mxCell id="0wiFBWgtt90F7_6RLSUe-23" value="" style="whiteSpace=wrap;html=1;aspect=fixed;shadow=0;fontSize=23;fillColor=#78B0E2;gradientColor=none;" vertex="1" parent="HXyZIpKs_MCkrubLxwcP-1">
                    <mxGeometry x="730" y="1000" width="60" height="60" as="geometry"/>
                </mxCell>
                <mxCell id="0wiFBWgtt90F7_6RLSUe-24" value="&lt;font color=&quot;#ffffff&quot; style=&quot;font-size: 20px&quot;&gt;&lt;span&gt;Dept:&lt;br&gt;&lt;div&gt;&lt;span&gt;Số lượng nhân viên&lt;/span&gt;&lt;/div&gt;&lt;/span&gt;&lt;/font&gt;" style="rounded=1;whiteSpace=wrap;html=1;fontSize=33;fontColor=#000000;align=left;" vertex="1" parent="HXyZIpKs_MCkrubLxwcP-1">
                    <mxGeometry x="335" y="250" width="180" height="180" as="geometry"/>
                </mxCell>
                <mxCell id="0wiFBWgtt90F7_6RLSUe-25" value="&lt;font color=&quot;#ffffff&quot; style=&quot;font-size: 20px&quot;&gt;&lt;span&gt;Dept:&lt;br&gt;&lt;div&gt;&lt;span&gt;Số lượng nhân viên&lt;/span&gt;&lt;/div&gt;&lt;/span&gt;&lt;/font&gt;" style="rounded=1;whiteSpace=wrap;html=1;fontSize=33;fontColor=#000000;align=left;" vertex="1" parent="HXyZIpKs_MCkrubLxwcP-1">
                    <mxGeometry x="610" y="250" width="180" height="180" as="geometry"/>
                </mxCell>
                <mxCell id="0wiFBWgtt90F7_6RLSUe-26" value="&lt;font color=&quot;#ffffff&quot; style=&quot;font-size: 20px&quot;&gt;&lt;span&gt;Dept:&lt;br&gt;&lt;div&gt;&lt;span&gt;Số lượng nhân viên&lt;/span&gt;&lt;/div&gt;&lt;/span&gt;&lt;/font&gt;" style="rounded=1;whiteSpace=wrap;html=1;fontSize=33;fontColor=#000000;align=left;" vertex="1" parent="HXyZIpKs_MCkrubLxwcP-1">
                    <mxGeometry x="335" y="490" width="180" height="180" as="geometry"/>
                </mxCell>
                <mxCell id="0wiFBWgtt90F7_6RLSUe-27" value="&lt;font color=&quot;#ffffff&quot; style=&quot;font-size: 20px&quot;&gt;&lt;span&gt;Dept:&lt;br&gt;&lt;div&gt;&lt;span&gt;Số lượng nhân viên&lt;/span&gt;&lt;/div&gt;&lt;/span&gt;&lt;/font&gt;" style="rounded=1;whiteSpace=wrap;html=1;fontSize=33;fontColor=#000000;align=left;" vertex="1" parent="HXyZIpKs_MCkrubLxwcP-1">
                    <mxGeometry x="50" y="490" width="180" height="180" as="geometry"/>
                </mxCell>
            </root>
        </mxGraphModel>
    </diagram>
    <diagram id="q9xmYrfW0-BKVVlRt7sv" name="Page-4">
        <mxGraphModel dx="993" dy="767" grid="1" gridSize="10" guides="1" tooltips="1" connect="1" arrows="1" fold="1" page="1" pageScale="1" pageWidth="850" pageHeight="1100" math="0" shadow="0">
            <root>
                <mxCell id="JKsfJi_tiDhjlsenkfK9-0"/>
                <mxCell id="JKsfJi_tiDhjlsenkfK9-1" parent="JKsfJi_tiDhjlsenkfK9-0"/>
                <mxCell id="Y5yQpHPXCicT2bwcnnnh-0" value="Nhân Viên" style="strokeWidth=1;shadow=0;dashed=0;align=center;html=1;shape=mxgraph.mockup.navigation.anchor;fontSize=17;fontColor=#666666;fontStyle=1;" vertex="1" parent="JKsfJi_tiDhjlsenkfK9-1">
                    <mxGeometry x="50" y="160" width="100" height="30" as="geometry"/>
                </mxCell>
                <mxCell id="Y5yQpHPXCicT2bwcnnnh-1" value="&gt;" style="strokeWidth=1;shadow=0;dashed=0;align=center;html=1;shape=mxgraph.mockup.navigation.anchor;fontSize=24;fontColor=#aaaaaa;fontStyle=1;" vertex="1" parent="JKsfJi_tiDhjlsenkfK9-1">
                    <mxGeometry x="150" y="160" width="20" height="30" as="geometry"/>
                </mxCell>
                <mxCell id="Y5yQpHPXCicT2bwcnnnh-2" value="&lt;font color=&quot;#ffffff&quot;&gt;&lt;span style=&quot;font-size: 20px&quot;&gt;Thông tin lương&lt;/span&gt;&lt;/font&gt;" style="rounded=1;whiteSpace=wrap;html=1;fontSize=33;fontColor=#000000;align=center;" vertex="1" parent="JKsfJi_tiDhjlsenkfK9-1">
                    <mxGeometry x="50" y="290" width="180" height="180" as="geometry"/>
                </mxCell>
                <mxCell id="Y5yQpHPXCicT2bwcnnnh-3" value="" style="rounded=0;whiteSpace=wrap;html=1;fillColor=#78B0E2;fontColor=#ffffff;strokeColor=#006EAF;" vertex="1" parent="JKsfJi_tiDhjlsenkfK9-1">
                    <mxGeometry width="850" height="130" as="geometry"/>
                </mxCell>
                <mxCell id="Y5yQpHPXCicT2bwcnnnh-4" value="&lt;font style=&quot;font-size: 33px&quot;&gt;Logo&lt;/font&gt;" style="rounded=1;whiteSpace=wrap;html=1;shadow=0;" vertex="1" parent="JKsfJi_tiDhjlsenkfK9-1">
                    <mxGeometry x="60" y="40" width="90" height="50" as="geometry"/>
                </mxCell>
                <mxCell id="Y5yQpHPXCicT2bwcnnnh-5" value="" style="strokeWidth=1;shadow=0;dashed=0;align=center;html=1;shape=mxgraph.mockup.forms.rrect;rSize=0;strokeColor=#999999;fontSize=33;fontColor=#000000;" vertex="1" parent="JKsfJi_tiDhjlsenkfK9-1">
                    <mxGeometry x="210" y="50" width="380" height="30" as="geometry"/>
                </mxCell>
                <mxCell id="Y5yQpHPXCicT2bwcnnnh-6" value="&lt;font color=&quot;#666666&quot;&gt;Nhân Viên&lt;/font&gt;" style="strokeWidth=1;shadow=0;dashed=0;align=center;html=1;shape=mxgraph.mockup.forms.rrect;rSize=0;fontSize=17;labelBackgroundColor=none;labelBorderColor=none;" vertex="1" parent="Y5yQpHPXCicT2bwcnnnh-5">
                    <mxGeometry width="126.66666666666669" height="30" as="geometry"/>
                </mxCell>
                <mxCell id="Y5yQpHPXCicT2bwcnnnh-7" value="&lt;font color=&quot;#808080&quot;&gt;Phòng ban&lt;/font&gt;" style="strokeWidth=1;shadow=0;dashed=0;align=center;html=1;shape=mxgraph.mockup.forms.rrect;rSize=0;fontSize=17;" vertex="1" parent="Y5yQpHPXCicT2bwcnnnh-5">
                    <mxGeometry x="118.98222222222225" width="133.70370370370372" height="30" as="geometry"/>
                </mxCell>
                <mxCell id="Y5yQpHPXCicT2bwcnnnh-8" value="&lt;font color=&quot;#0000cc&quot;&gt;Lương&lt;/font&gt;" style="strokeColor=#666666;fillColor=#f5f5f5;gradientColor=#b3b3b3;strokeWidth=1;shadow=0;dashed=0;align=center;html=1;shape=mxgraph.mockup.forms.rrect;rSize=0;fontSize=17;" vertex="1" parent="Y5yQpHPXCicT2bwcnnnh-5">
                    <mxGeometry x="252.68592592592591" width="127.31407407407407" height="30" as="geometry"/>
                </mxCell>
                <mxCell id="Y5yQpHPXCicT2bwcnnnh-9" value="" style="rounded=0;whiteSpace=wrap;html=1;shadow=0;fillColor=#78B0E2;gradientColor=none;" vertex="1" parent="JKsfJi_tiDhjlsenkfK9-1">
                    <mxGeometry y="960" width="850" height="140" as="geometry"/>
                </mxCell>
                <mxCell id="Y5yQpHPXCicT2bwcnnnh-10" value="&lt;div style=&quot;font-size: 23px&quot;&gt;&lt;font color=&quot;#ffffff&quot;&gt;Nhân Viên&lt;/font&gt;&lt;/div&gt;&lt;div style=&quot;font-size: 23px&quot;&gt;&lt;font color=&quot;#ffffff&quot;&gt;Phòng Ban&lt;/font&gt;&amp;nbsp;&lt;/div&gt;&lt;div style=&quot;font-size: 23px&quot;&gt;&lt;b&gt;&lt;font color=&quot;#0000ff&quot;&gt;Lương&lt;/font&gt;&lt;/b&gt;&lt;/div&gt;" style="text;strokeColor=none;fillColor=none;html=1;whiteSpace=wrap;verticalAlign=middle;overflow=hidden;shadow=0;fontSize=23;align=left;" vertex="1" parent="JKsfJi_tiDhjlsenkfK9-1">
                    <mxGeometry x="90" y="970" width="140" height="120" as="geometry"/>
                </mxCell>
                <mxCell id="Y5yQpHPXCicT2bwcnnnh-11" value="Address" style="rounded=1;whiteSpace=wrap;html=1;shadow=0;fontSize=23;fillColor=#78B0E2;gradientColor=none;" vertex="1" parent="JKsfJi_tiDhjlsenkfK9-1">
                    <mxGeometry x="270" y="970" width="200" height="110" as="geometry"/>
                </mxCell>
                <mxCell id="Y5yQpHPXCicT2bwcnnnh-12" value="" style="whiteSpace=wrap;html=1;aspect=fixed;shadow=0;fontSize=23;fillColor=#78B0E2;gradientColor=none;" vertex="1" parent="JKsfJi_tiDhjlsenkfK9-1">
                    <mxGeometry x="550" y="1000" width="60" height="60" as="geometry"/>
                </mxCell>
                <mxCell id="Y5yQpHPXCicT2bwcnnnh-13" value="" style="whiteSpace=wrap;html=1;aspect=fixed;shadow=0;fontSize=23;fillColor=#78B0E2;gradientColor=none;" vertex="1" parent="JKsfJi_tiDhjlsenkfK9-1">
                    <mxGeometry x="610" y="1000" width="60" height="60" as="geometry"/>
                </mxCell>
                <mxCell id="Y5yQpHPXCicT2bwcnnnh-14" value="" style="whiteSpace=wrap;html=1;aspect=fixed;shadow=0;fontSize=23;fillColor=#78B0E2;gradientColor=none;" vertex="1" parent="JKsfJi_tiDhjlsenkfK9-1">
                    <mxGeometry x="670" y="1000" width="60" height="60" as="geometry"/>
                </mxCell>
                <mxCell id="Y5yQpHPXCicT2bwcnnnh-15" value="" style="whiteSpace=wrap;html=1;aspect=fixed;shadow=0;fontSize=23;fillColor=#78B0E2;gradientColor=none;" vertex="1" parent="JKsfJi_tiDhjlsenkfK9-1">
                    <mxGeometry x="730" y="1000" width="60" height="60" as="geometry"/>
                </mxCell>
                <mxCell id="Y5yQpHPXCicT2bwcnnnh-20" value="Lương" style="strokeWidth=1;shadow=0;dashed=0;align=center;html=1;shape=mxgraph.mockup.navigation.anchor;fontSize=17;fontColor=#666666;fontStyle=1;" vertex="1" parent="JKsfJi_tiDhjlsenkfK9-1">
                    <mxGeometry x="180" y="160" width="100" height="30" as="geometry"/>
                </mxCell>
                <mxCell id="Y5yQpHPXCicT2bwcnnnh-21" value="&lt;font color=&quot;#ffffff&quot;&gt;&lt;span style=&quot;font-size: 20px&quot;&gt;Thông tin lương&lt;/span&gt;&lt;/font&gt;" style="rounded=1;whiteSpace=wrap;html=1;fontSize=33;fontColor=#000000;align=center;" vertex="1" parent="JKsfJi_tiDhjlsenkfK9-1">
                    <mxGeometry x="335" y="290" width="180" height="180" as="geometry"/>
                </mxCell>
                <mxCell id="Y5yQpHPXCicT2bwcnnnh-22" value="&lt;font color=&quot;#ffffff&quot;&gt;&lt;span style=&quot;font-size: 20px&quot;&gt;Thông tin lương&lt;/span&gt;&lt;/font&gt;" style="rounded=1;whiteSpace=wrap;html=1;fontSize=33;fontColor=#000000;align=center;" vertex="1" parent="JKsfJi_tiDhjlsenkfK9-1">
                    <mxGeometry x="610" y="290" width="180" height="180" as="geometry"/>
                </mxCell>
                <mxCell id="Y5yQpHPXCicT2bwcnnnh-23" value="&lt;font color=&quot;#ffffff&quot;&gt;&lt;span style=&quot;font-size: 20px&quot;&gt;Thông tin lương&lt;/span&gt;&lt;/font&gt;" style="rounded=1;whiteSpace=wrap;html=1;fontSize=33;fontColor=#000000;align=center;" vertex="1" parent="JKsfJi_tiDhjlsenkfK9-1">
                    <mxGeometry x="55" y="510" width="180" height="180" as="geometry"/>
                </mxCell>
                <mxCell id="Y5yQpHPXCicT2bwcnnnh-24" value="&lt;font color=&quot;#ffffff&quot;&gt;&lt;span style=&quot;font-size: 20px&quot;&gt;Thông tin lương&lt;/span&gt;&lt;/font&gt;" style="rounded=1;whiteSpace=wrap;html=1;fontSize=33;fontColor=#000000;align=center;" vertex="1" parent="JKsfJi_tiDhjlsenkfK9-1">
                    <mxGeometry x="340" y="510" width="180" height="180" as="geometry"/>
                </mxCell>
                <mxCell id="Y5yQpHPXCicT2bwcnnnh-25" value="&lt;font color=&quot;#ffffff&quot;&gt;&lt;span style=&quot;font-size: 20px&quot;&gt;Thông tin lương&lt;/span&gt;&lt;/font&gt;" style="rounded=1;whiteSpace=wrap;html=1;fontSize=33;fontColor=#000000;align=center;" vertex="1" parent="JKsfJi_tiDhjlsenkfK9-1">
                    <mxGeometry x="615" y="510" width="180" height="180" as="geometry"/>
                </mxCell>
                <mxCell id="Y5yQpHPXCicT2bwcnnnh-26" value="&lt;font color=&quot;#ffffff&quot;&gt;&lt;span style=&quot;font-size: 20px&quot;&gt;Thông tin lương&lt;/span&gt;&lt;/font&gt;" style="rounded=1;whiteSpace=wrap;html=1;fontSize=33;fontColor=#000000;align=center;" vertex="1" parent="JKsfJi_tiDhjlsenkfK9-1">
                    <mxGeometry x="50" y="750" width="180" height="180" as="geometry"/>
                </mxCell>
                <mxCell id="Y5yQpHPXCicT2bwcnnnh-27" value="&lt;font color=&quot;#ffffff&quot;&gt;&lt;span style=&quot;font-size: 20px&quot;&gt;Thông tin lương&lt;/span&gt;&lt;/font&gt;" style="rounded=1;whiteSpace=wrap;html=1;fontSize=33;fontColor=#000000;align=center;" vertex="1" parent="JKsfJi_tiDhjlsenkfK9-1">
                    <mxGeometry x="335" y="750" width="180" height="180" as="geometry"/>
                </mxCell>
                <mxCell id="Y5yQpHPXCicT2bwcnnnh-28" value="&lt;font color=&quot;#ffffff&quot;&gt;&lt;span style=&quot;font-size: 20px&quot;&gt;Thông tin lương&lt;/span&gt;&lt;/font&gt;" style="rounded=1;whiteSpace=wrap;html=1;fontSize=33;fontColor=#000000;align=center;" vertex="1" parent="JKsfJi_tiDhjlsenkfK9-1">
                    <mxGeometry x="610" y="750" width="180" height="180" as="geometry"/>
                </mxCell>
                <mxCell id="zl5v1plBhuWfBWGCfKCz-0" value="&lt;font color=&quot;#cce5ff&quot; style=&quot;background-color: rgb(0 , 127 , 255)&quot;&gt;Sắp xếp hệ số lương&lt;/font&gt;" style="strokeWidth=1;shadow=0;dashed=0;align=center;html=1;shape=mxgraph.mockup.buttons.button;strokeColor=#666666;fontColor=#ffffff;mainText=;buttonStyle=round;fontSize=17;fontStyle=1;fillColor=#008cff;whiteSpace=wrap;labelBackgroundColor=default;labelBorderColor=none;" vertex="1" parent="JKsfJi_tiDhjlsenkfK9-1">
                    <mxGeometry x="60" y="210" width="190" height="50" as="geometry"/>
                </mxCell>
            </root>
        </mxGraphModel>
    </diagram>
</mxfile>